<svg width="10" height="10" viewBox="0 0 10 10" fill="none" xmlns="http://www.w3.org/2000/svg">
<g clip-path="url(#clip0_156_13845)">
<path d="M6.37334 7.27344H2.73334C2.37176 7.27344 2.02499 7.41707 1.76931 7.67275C1.51364 7.92842 1.37 8.27519 1.37 8.63677C1.37 8.99835 1.51364 9.34512 1.76931 9.60079C2.02499 9.85647 2.37176 10.0001 2.73334 10.0001H6.37334C6.73491 10.0001 7.08168 9.85647 7.33736 9.60079C7.59303 9.34512 7.73667 8.99835 7.73667 8.63677C7.73667 8.27519 7.59303 7.92842 7.33736 7.67275C7.08168 7.41707 6.73491 7.27344 6.37334 7.27344ZM5.44 8.35344L4.23334 9.26677C4.19389 9.29403 4.14783 9.31015 4.1 9.31344C4.07021 9.31374 4.04066 9.30799 4.01316 9.29653C3.98566 9.28507 3.96077 9.26814 3.94 9.24677L3.63334 8.9401C3.5958 8.89654 3.57515 8.84094 3.57515 8.78344C3.57515 8.72593 3.5958 8.67033 3.63334 8.62677C3.68298 8.58833 3.74388 8.56725 3.80667 8.56677C3.86314 8.56862 3.91727 8.5898 3.96 8.62677L4.12667 8.79344L5.17334 8.0001C5.21332 7.9749 5.25942 7.96107 5.30667 7.9601C5.34035 7.95984 5.37362 7.96756 5.40374 7.98262C5.43387 7.99768 5.46 8.01967 5.48 8.04677C5.4986 8.06617 5.51294 8.08923 5.52213 8.11448C5.53131 8.13974 5.53513 8.16663 5.53334 8.19344C5.52419 8.25687 5.49072 8.31425 5.44 8.35344Z" fill="#9CA2A7"/>
<path d="M1.57333 4.81996L1.21333 4.54663H2.12L1.76 4.81996C1.7328 4.8395 1.70015 4.85001 1.66667 4.85001C1.63318 4.85001 1.60053 4.8395 1.57333 4.81996Z" fill="#9CA2A7"/>
<path d="M1.06 5.45328C1.0245 5.45413 0.989809 5.44263 0.961845 5.42075C0.933881 5.39886 0.914379 5.36795 0.90667 5.33328V4.69995L1.39334 5.05995C1.47391 5.11799 1.5707 5.14923 1.67 5.14923C1.76931 5.14923 1.8661 5.11799 1.94667 5.05995L2.42667 4.69995V5.33328C2.42669 5.35312 2.42269 5.37275 2.4149 5.391C2.40712 5.40924 2.39572 5.42571 2.38138 5.43942C2.36705 5.45313 2.35008 5.46379 2.33151 5.47076C2.31294 5.47773 2.29315 5.48085 2.27334 5.47995L1.06 5.45328Z" fill="#9CA2A7"/>
<path d="M8.33333 3.6333H0.753333C0.55232 3.6368 0.360724 3.71911 0.219817 3.86251C0.0789103 4.00591 -3.0397e-05 4.19892 8.78035e-09 4.39997V5.60663C8.78035e-09 5.80643 0.0793688 5.99804 0.220646 6.13932C0.361924 6.2806 0.553537 6.35997 0.753333 6.35997H8.33333C8.43282 6.36085 8.5315 6.34201 8.62367 6.30455C8.71584 6.26708 8.79967 6.21173 8.87033 6.14169C8.941 6.07165 8.99708 5.98831 9.03536 5.89647C9.07363 5.80463 9.09334 5.70613 9.09333 5.60663V4.39997C9.09334 4.19778 9.01348 4.00378 8.87114 3.8602C8.7288 3.71661 8.53551 3.63506 8.33333 3.6333ZM8.04667 5.51997H3.33333C3.30933 5.52131 3.28532 5.51723 3.26311 5.50802C3.2409 5.49881 3.22105 5.48472 3.20504 5.46678C3.18902 5.44884 3.17726 5.42753 3.17061 5.40442C3.16397 5.38131 3.16262 5.357 3.16667 5.3333C3.16368 5.31565 3.16368 5.29762 3.16667 5.27997C3.18519 5.25411 3.21073 5.23409 3.24026 5.22228C3.26979 5.21047 3.30209 5.20735 3.33333 5.2133H8.06667C8.09562 5.21395 8.12374 5.22317 8.14747 5.23978C8.1712 5.25639 8.18947 5.27965 8.2 5.30663C8.20298 5.32429 8.20298 5.34231 8.2 5.35997C8.2009 5.38066 8.1976 5.40132 8.1903 5.42069C8.183 5.44007 8.17185 5.45777 8.15752 5.47273C8.14319 5.48768 8.12598 5.49957 8.10693 5.50769C8.08787 5.51581 8.06738 5.51999 8.04667 5.51997ZM4.62 4.78663H3.33333C3.30531 4.78576 3.27806 4.77722 3.25455 4.76194C3.23104 4.74666 3.21218 4.72522 3.2 4.69997C3.19544 4.68023 3.19544 4.65971 3.2 4.63997C3.19968 4.60254 3.21306 4.56629 3.23762 4.53804C3.26218 4.5098 3.29622 4.49151 3.33333 4.48663H4.66667C4.689 4.4819 4.71212 4.48221 4.73432 4.48755C4.75652 4.49289 4.77725 4.50312 4.79499 4.5175C4.81273 4.53187 4.82704 4.55003 4.83687 4.57064C4.8467 4.59125 4.8518 4.6138 4.8518 4.63663C4.8518 4.65947 4.8467 4.68202 4.83687 4.70263C4.82704 4.72324 4.81273 4.7414 4.79499 4.75577C4.77725 4.77015 4.75652 4.78038 4.73432 4.78572C4.71212 4.79106 4.689 4.79137 4.66667 4.78663H4.62ZM2.72667 5.3333C2.72667 5.45353 2.6789 5.56884 2.59389 5.65386C2.50887 5.73887 2.39356 5.78663 2.27333 5.78663H1.06C0.940305 5.78491 0.825996 5.7366 0.74135 5.65195C0.656704 5.5673 0.608389 5.453 0.606667 5.3333V4.69997C0.606667 4.57974 0.654428 4.46443 0.739445 4.37941C0.824461 4.2944 0.939768 4.24663 1.06 4.24663H2.27333C2.33311 4.24574 2.39247 4.25685 2.44787 4.27931C2.50328 4.30177 2.55362 4.33513 2.59589 4.37741C2.63817 4.41969 2.67153 4.47002 2.69399 4.52543C2.71645 4.58083 2.72757 4.64019 2.72667 4.69997V5.3333Z" fill="#9CA2A7"/>
<path d="M1.52 1.05989C1.52 1.04063 1.52379 1.02156 1.53116 1.00376C1.53853 0.98597 1.54934 0.969802 1.56296 0.956183C1.57658 0.942563 1.59274 0.93176 1.61054 0.924389C1.62833 0.917019 1.6474 0.913225 1.66667 0.913225C1.69752 0.91191 1.72805 0.919943 1.75427 0.936272C1.78048 0.952601 1.80115 0.976464 1.81357 1.00474C1.826 1.03301 1.82959 1.06438 1.82389 1.09473C1.81819 1.12508 1.80345 1.153 1.78162 1.17484C1.75978 1.19668 1.73186 1.21141 1.7015 1.21712C1.67115 1.22282 1.63979 1.21922 1.61151 1.2068C1.58324 1.19438 1.55937 1.1737 1.54305 1.14749C1.52672 1.12128 1.51868 1.09075 1.52 1.05989Z" fill="#9CA2A7"/>
<path d="M2 1.82H1.36667C1.36665 1.73981 1.39804 1.66281 1.45412 1.60548C1.5102 1.54816 1.5865 1.51508 1.66667 1.51334C1.70891 1.51063 1.75127 1.51651 1.79117 1.53062C1.83108 1.54473 1.86772 1.56678 1.89887 1.59544C1.93002 1.6241 1.95504 1.65877 1.97243 1.69737C1.98981 1.73596 1.99919 1.77768 2 1.82Z" fill="#9CA2A7"/>
<path d="M8.33333 0H0.753333C0.552926 0.00175802 0.361326 0.0826047 0.220237 0.224942C0.0791477 0.36728 -7.71022e-06 0.559585 5.63296e-10 0.76L5.63296e-10 2C0.00691185 2.19514 0.0893217 2.37997 0.229857 2.51553C0.370392 2.65109 0.558072 2.72679 0.753333 2.72667H8.33333C8.52974 2.72853 8.71911 2.6536 8.86108 2.51786C9.00305 2.38212 9.08639 2.1963 9.09333 2V0.76C9.09333 0.558435 9.01326 0.365127 8.87073 0.222599C8.72821 0.0800712 8.5349 0 8.33333 0ZM3.33333 0.906667H4.62C4.64014 0.906667 4.66007 0.910633 4.67868 0.918338C4.69728 0.926044 4.71418 0.937339 4.72842 0.951577C4.74266 0.965815 4.75396 0.982719 4.76166 1.00132C4.76937 1.01993 4.77333 1.03986 4.77333 1.06C4.77335 1.07983 4.76935 1.09947 4.76157 1.11771C4.75378 1.13595 4.74238 1.15243 4.72805 1.16614C4.71371 1.17985 4.69675 1.19051 4.67818 1.19748C4.6596 1.20444 4.63981 1.20757 4.62 1.20667H3.33333C3.30381 1.2043 3.2758 1.19263 3.25333 1.17333C3.23625 1.15988 3.22254 1.14264 3.21328 1.12296C3.20403 1.10329 3.19948 1.08173 3.2 1.06C3.20239 1.03066 3.21221 1.00241 3.22854 0.977915C3.24487 0.953421 3.26717 0.93349 3.29333 0.92L3.33333 0.906667ZM2 2.12667H1.36667C1.28533 2.12667 1.20733 2.09436 1.14982 2.03685C1.09231 1.97933 1.06 1.90133 1.06 1.82C1.06327 1.72292 1.08981 1.62805 1.13737 1.54336C1.18494 1.45868 1.25214 1.38665 1.33333 1.33333C1.27426 1.2547 1.2437 1.15831 1.24667 1.06C1.24636 0.945327 1.28952 0.834797 1.36745 0.750677C1.44539 0.666557 1.5523 0.615098 1.66667 0.606667C1.787 0.608337 1.90204 0.656431 1.98775 0.740905C2.07347 0.82538 2.12324 0.939703 2.12667 1.06C2.12099 1.16397 2.07566 1.2618 2 1.33333C2.07626 1.38956 2.1383 1.46286 2.18113 1.54737C2.22397 1.63188 2.24641 1.72525 2.24667 1.82C2.24805 1.89193 2.22411 1.96206 2.17902 2.01812C2.13392 2.07418 2.07056 2.1126 2 2.12667ZM8.07333 1.94H3.33333C3.29496 1.93836 3.2586 1.92239 3.23144 1.89523C3.20428 1.86807 3.1883 1.83171 3.18667 1.79333C3.17629 1.76768 3.17629 1.73899 3.18667 1.71333C3.20191 1.68827 3.2235 1.66768 3.24925 1.65363C3.275 1.63958 3.30401 1.63258 3.33333 1.63333H8.06667C8.09319 1.6333 8.11918 1.6408 8.1416 1.65496C8.16403 1.66913 8.18197 1.68937 8.19333 1.71333C8.20098 1.73718 8.20098 1.76282 8.19333 1.78667C8.19423 1.80648 8.19111 1.82627 8.18414 1.84484C8.17718 1.86341 8.16652 1.88038 8.15281 1.89471C8.1391 1.90905 8.12262 1.92045 8.10438 1.92823C8.08613 1.93602 8.0665 1.94002 8.04667 1.94H8.07333Z" fill="#9CA2A7"/>
</g>
<defs>
<clipPath id="clip0_156_13845">
<rect width="9.09333" height="10" fill="white"/>
</clipPath>
</defs>
</svg>
